<svg xmlns="http://www.w3.org/2000/svg" viewBox="0 0 24 24" fill="#00a859">
  <path d="M21 3s-6.71-.53-12 4.76c-1.32 1.32-2.3 3.03-2.83 4.9C4.54 11.23 3 10 3 10s.47 5.86 4.76 10.14c1.69 1.69 3.51 2.32 5.09 2.53C12.56 21 12 18 12 18c0-3.31 2.69-6 6-6h3s-.56-2.51-1.92-4.13C17.65 6.13 21 3 21 3z"/>
  <path d="M12 22.67c1.58.21 3.4.84 5.09 2.53C21.38 29.48 21.85 35.34 21.85 35.34s-1.54-1.23-3.17-2.66c-.53 1.87-1.51 3.58-2.83 4.9-5.29 5.29-12 4.76-12 4.76s3.35-3.13 4.92-4.75c-1.36-1.62-1.92-4.13-1.92-4.13h3c3.31 0 6-2.69 6-6v-4.67z" fill-opacity="0.5" />
</svg>
